# xmcd
#
# Track frame offsets:
#	150
#	12985
#	27146
#	40280
#	52626
#	63038
#	74190
#	84887
#	97090
#	110718
#	124884
#	141727
#	157075
#	167823
#	182487
#	201919
#
# Disc length: 2894 seconds
# Revision: 0
# Processed by: cddbd v1.5.2PL0 Copyright (c) Steve Scherf et al.
# Submitted via: dBpowerAMP V12.0
#
DISCID=e40b4c10
DTITLE=Various Artist - When Chicago Got the Blues
DYEAR=2012
DGENRE=Blues
TTITLE0=Howlin' Wolf - Killing Floor
TTITLE1=Sonny Boy Williamson - Help Me
TTITLE2=Muddy Waters - Mannish Boy
TTITLE3=Otis Spann - Five Spot
TTITLE4=Little Walter - Rock Bottom
TTITLE5=Jimmy Reed - Baby What You Want Me to Do
TTITLE6=Bo Diddley - Mona
TTITLE7=Otis Rush - You Know My Love
TTITLE8=Koko Taylor - Wang Dang Doodle
TTITLE9=The Paul Butterfield Blues Band - Born in Chicago
TTITLE10=Junior Wells - In the Wee Hours
TTITLE11=Buddy Guy - Leave My Girl Alone
TTITLE12=Etta James - In the Basement (Pt. 1)
TTITLE13=Magic Sam - That's All I Need
TTITLE14=Koko Taylor ft. Willie Dixon - Insane Asylum
TTITLE15=Hound Dog Taylor and the HouseRockers - Goodnight Boogie
EXTD=
EXTT0=
EXTT1=
EXTT2=
EXTT3=
EXTT4=
EXTT5=
EXTT6=
EXTT7=
EXTT8=
EXTT9=
EXTT10=
EXTT11=
EXTT12=
EXTT13=
EXTT14=
EXTT15=
PLAYORDER=
